<svg width="17" height="17" viewBox="0 0 17 17" fill="none" xmlns="http://www.w3.org/2000/svg">
<mask id="path-1-outside-1_911_3" maskUnits="userSpaceOnUse" x="0.792175" y="0.208191" width="16" height="16" fill="black">
<rect fill="white" x="0.792175" y="0.208191" width="16" height="16"/>
<path d="M14.7023 12.2397C15.3508 11.2064 15.7173 10.0124 15.7824 8.79876C15.8482 7.56793 15.5811 6.33388 15.0352 5.22885C14.5083 4.16188 13.703 3.24957 12.7356 2.55402C11.7452 1.84164 10.5807 1.41614 9.37131 1.26268C9.0832 1.22622 8.79268 1.20859 8.50216 1.20819C6.7804 1.2118 5.12046 1.82241 3.80075 2.91462C2.54166 3.95674 1.65149 5.45242 1.34762 7.05107C1.19044 7.87964 1.21225 8.70942 1.21225 9.5468V12.8695C1.21225 13.6236 1.20458 14.378 1.21225 15.1317C1.21225 15.1437 1.21225 15.1557 1.21225 15.1677C1.21225 15.4362 1.44177 15.6641 1.71291 15.6641H7.49924C7.8823 15.6641 8.26577 15.6705 8.64883 15.6625C9.87883 15.6365 11.0975 15.3019 12.1614 14.6885C13.193 14.0939 14.0715 13.2433 14.7019 12.2393L14.7023 12.2397ZM11.4527 13.9445C11.3311 14.009 11.2078 14.0699 11.0826 14.1272C11.049 14.1424 11.0155 14.1576 10.9815 14.1721C10.9767 14.1741 10.9666 14.1785 10.9553 14.1833C10.9371 14.1905 10.9072 14.2029 10.8967 14.2073C10.8579 14.2225 10.8191 14.2378 10.7803 14.2522C10.5189 14.3508 10.251 14.4333 9.97904 14.4986C9.8368 14.5331 9.69336 14.5627 9.54951 14.5876C9.48405 14.5988 9.41818 14.6088 9.35232 14.6188C9.31151 14.624 9.2703 14.6288 9.22949 14.6328C8.76157 14.6821 8.29042 14.6709 7.82088 14.6709H2.21476V9.96469C2.21476 9.28477 2.18244 8.59362 2.23456 7.9149C2.24184 7.81994 2.25113 7.72499 2.26244 7.63043C2.26406 7.61841 2.26528 7.60599 2.26689 7.59397C2.26689 7.59397 2.26689 7.59397 2.26689 7.59357C2.27538 7.53747 2.28386 7.48178 2.29356 7.42569C2.32709 7.23217 2.36872 7.03985 2.41923 6.84994C2.46893 6.66202 2.52711 6.47652 2.59338 6.29382C2.62449 6.20727 2.65763 6.12153 2.69279 6.03659C2.69036 6.0422 2.68793 6.04741 2.6847 6.05382C2.69237 6.03739 2.69924 6.02016 2.70652 6.00333C2.72874 5.95285 2.75138 5.90317 2.77441 5.85349C2.93644 5.50731 3.12838 5.17516 3.34738 4.86144C3.3987 4.78772 3.45163 4.7148 3.50618 4.64348C3.50254 4.64789 3.50012 4.65069 3.49568 4.6559C3.51022 4.63867 3.52396 4.62024 3.53811 4.60261C3.56922 4.56375 3.60074 4.52529 3.63266 4.48682C3.75752 4.33777 3.88925 4.19394 4.02663 4.05571C4.16079 3.92108 4.301 3.79167 4.44606 3.66867C4.51273 3.61217 4.58062 3.55768 4.64931 3.50359C4.64325 3.5076 4.6388 3.51121 4.63153 3.51641C4.64163 3.5092 4.65133 3.50159 4.66103 3.49438C4.66345 3.49237 4.66547 3.49077 4.66789 3.48877C4.67436 3.48356 4.68244 3.47795 4.68891 3.47354C4.69174 3.47154 4.69416 3.46954 4.69699 3.46753C4.74063 3.43508 4.78508 3.40303 4.82952 3.37177C5.14308 3.15101 5.47564 2.95669 5.82234 2.79201C5.90194 2.75395 5.98275 2.71829 6.06397 2.68303C6.07852 2.67702 6.09347 2.67101 6.10802 2.6654C6.15974 2.64497 6.21145 2.62494 6.26358 2.60571C6.44703 2.53799 6.63291 2.47829 6.82161 2.42661C7.01233 2.37452 7.20508 2.33045 7.39944 2.29479C7.49278 2.27756 7.58773 2.26755 7.68107 2.24952C7.51379 2.28157 7.67542 2.25072 7.71865 2.24551C7.77603 2.2391 7.83341 2.23309 7.89079 2.22828C8.09404 2.21025 8.2981 2.20184 8.50216 2.20144C8.79107 2.20224 9.07876 2.22147 9.36566 2.25593C9.3705 2.25673 9.37536 2.25713 9.38021 2.25793C9.41334 2.26274 9.44607 2.26795 9.4788 2.27315C9.55355 2.28517 9.62831 2.2988 9.70266 2.31362C9.84125 2.34087 9.97864 2.37252 10.1152 2.40858C10.3896 2.4807 10.6591 2.57005 10.9221 2.67622C10.9286 2.67903 10.9355 2.68143 10.9424 2.68424C10.9638 2.69345 10.9852 2.70267 11.0066 2.71188C11.0741 2.74153 11.1408 2.77238 11.207 2.80403C11.3311 2.86373 11.4531 2.92704 11.5731 2.99395C11.816 3.12937 12.0503 3.27962 12.2746 3.44389C12.2984 3.46152 12.3223 3.47915 12.3457 3.49678C12.3497 3.49999 12.3538 3.50319 12.3578 3.506C12.4116 3.54807 12.4641 3.59094 12.5166 3.63461C12.6245 3.72476 12.7296 3.81811 12.8318 3.91467C13.0294 4.10138 13.2157 4.29971 13.3894 4.50886C13.4125 4.5369 13.4355 4.56495 13.4581 4.593C13.4622 4.59821 13.4731 4.61183 13.4832 4.62465C13.4945 4.63907 13.5078 4.6567 13.5135 4.66392C13.5353 4.69276 13.5567 4.72201 13.5781 4.75126C13.661 4.86505 13.7402 4.98124 13.8157 5.09984C13.9624 5.33062 14.0953 5.57022 14.2125 5.81662C14.242 5.87873 14.2707 5.94083 14.2982 6.00373C14.299 6.00534 14.2998 6.00694 14.3002 6.00894C14.3144 6.0442 14.3289 6.07866 14.343 6.11392C14.3939 6.24253 14.4408 6.37275 14.4832 6.50416C14.5697 6.7698 14.6388 7.04105 14.6909 7.31551C14.7043 7.38482 14.716 7.45454 14.7273 7.52425C14.7326 7.55711 14.7366 7.58996 14.7419 7.62242C14.7144 7.45614 14.7398 7.60839 14.7443 7.64565C14.7613 7.78789 14.7734 7.93093 14.7811 8.07396C14.7968 8.36805 14.7936 8.66334 14.771 8.95703C14.7657 9.02354 14.7596 9.09005 14.7524 9.15656C14.7487 9.18981 14.7451 9.22267 14.7411 9.25592C14.7402 9.26353 14.739 9.27115 14.7382 9.27916C14.7164 9.41859 14.693 9.55762 14.6639 9.69585C14.6053 9.97311 14.5285 10.2464 14.4352 10.5136C14.4137 10.5745 14.3915 10.635 14.3685 10.6951C14.3568 10.7252 14.3451 10.7552 14.3333 10.7849C14.3273 10.7997 14.2978 10.8702 14.2945 10.8786C14.2917 10.8854 14.2889 10.8914 14.2877 10.8942C14.2727 10.9279 14.2578 10.9611 14.2424 10.9944C14.2137 11.0565 14.1838 11.1182 14.1531 11.1795C14.0287 11.4275 13.8889 11.6679 13.7345 11.8987C13.6589 12.0117 13.5797 12.1227 13.4977 12.2308C13.4949 12.2349 13.4917 12.2389 13.4884 12.2429C13.4698 12.2661 13.4516 12.2889 13.4331 12.3122C13.3902 12.3647 13.3466 12.4168 13.3021 12.4684C13.1215 12.6772 12.9276 12.8751 12.7227 13.0602C12.6217 13.1516 12.5182 13.2397 12.412 13.3247C12.3901 13.3423 12.3679 13.3595 12.3457 13.3771C12.3404 13.3812 12.3352 13.3852 12.3304 13.3888C12.2722 13.4324 12.2132 13.4749 12.1534 13.5166C11.9291 13.6732 11.6951 13.8163 11.4531 13.9449L11.4527 13.9445Z"/>
</mask>
<path d="M14.7023 12.2397C15.3508 11.2064 15.7173 10.0124 15.7824 8.79876C15.8482 7.56793 15.5811 6.33388 15.0352 5.22885C14.5083 4.16188 13.703 3.24957 12.7356 2.55402C11.7452 1.84164 10.5807 1.41614 9.37131 1.26268C9.0832 1.22622 8.79268 1.20859 8.50216 1.20819C6.7804 1.2118 5.12046 1.82241 3.80075 2.91462C2.54166 3.95674 1.65149 5.45242 1.34762 7.05107C1.19044 7.87964 1.21225 8.70942 1.21225 9.5468V12.8695C1.21225 13.6236 1.20458 14.378 1.21225 15.1317C1.21225 15.1437 1.21225 15.1557 1.21225 15.1677C1.21225 15.4362 1.44177 15.6641 1.71291 15.6641H7.49924C7.8823 15.6641 8.26577 15.6705 8.64883 15.6625C9.87883 15.6365 11.0975 15.3019 12.1614 14.6885C13.193 14.0939 14.0715 13.2433 14.7019 12.2393L14.7023 12.2397ZM11.4527 13.9445C11.3311 14.009 11.2078 14.0699 11.0826 14.1272C11.049 14.1424 11.0155 14.1576 10.9815 14.1721C10.9767 14.1741 10.9666 14.1785 10.9553 14.1833C10.9371 14.1905 10.9072 14.2029 10.8967 14.2073C10.8579 14.2225 10.8191 14.2378 10.7803 14.2522C10.5189 14.3508 10.251 14.4333 9.97904 14.4986C9.8368 14.5331 9.69336 14.5627 9.54951 14.5876C9.48405 14.5988 9.41818 14.6088 9.35232 14.6188C9.31151 14.624 9.2703 14.6288 9.22949 14.6328C8.76157 14.6821 8.29042 14.6709 7.82088 14.6709H2.21476V9.96469C2.21476 9.28477 2.18244 8.59362 2.23456 7.9149C2.24184 7.81994 2.25113 7.72499 2.26244 7.63043C2.26406 7.61841 2.26528 7.60599 2.26689 7.59397C2.26689 7.59397 2.26689 7.59397 2.26689 7.59357C2.27538 7.53747 2.28386 7.48178 2.29356 7.42569C2.32709 7.23217 2.36872 7.03985 2.41923 6.84994C2.46893 6.66202 2.52711 6.47652 2.59338 6.29382C2.62449 6.20727 2.65763 6.12153 2.69279 6.03659C2.69036 6.0422 2.68793 6.04741 2.6847 6.05382C2.69237 6.03739 2.69924 6.02016 2.70652 6.00333C2.72874 5.95285 2.75138 5.90317 2.77441 5.85349C2.93644 5.50731 3.12838 5.17516 3.34738 4.86144C3.3987 4.78772 3.45163 4.7148 3.50618 4.64348C3.50254 4.64789 3.50012 4.65069 3.49568 4.6559C3.51022 4.63867 3.52396 4.62024 3.53811 4.60261C3.56922 4.56375 3.60074 4.52529 3.63266 4.48682C3.75752 4.33777 3.88925 4.19394 4.02663 4.05571C4.16079 3.92108 4.301 3.79167 4.44606 3.66867C4.51273 3.61217 4.58062 3.55768 4.64931 3.50359C4.64325 3.5076 4.6388 3.51121 4.63153 3.51641C4.64163 3.5092 4.65133 3.50159 4.66103 3.49438C4.66345 3.49237 4.66547 3.49077 4.66789 3.48877C4.67436 3.48356 4.68244 3.47795 4.68891 3.47354C4.69174 3.47154 4.69416 3.46954 4.69699 3.46753C4.74063 3.43508 4.78508 3.40303 4.82952 3.37177C5.14308 3.15101 5.47564 2.95669 5.82234 2.79201C5.90194 2.75395 5.98275 2.71829 6.06397 2.68303C6.07852 2.67702 6.09347 2.67101 6.10802 2.6654C6.15974 2.64497 6.21145 2.62494 6.26358 2.60571C6.44703 2.53799 6.63291 2.47829 6.82161 2.42661C7.01233 2.37452 7.20508 2.33045 7.39944 2.29479C7.49278 2.27756 7.58773 2.26755 7.68107 2.24952C7.51379 2.28157 7.67542 2.25072 7.71865 2.24551C7.77603 2.2391 7.83341 2.23309 7.89079 2.22828C8.09404 2.21025 8.2981 2.20184 8.50216 2.20144C8.79107 2.20224 9.07876 2.22147 9.36566 2.25593C9.3705 2.25673 9.37536 2.25713 9.38021 2.25793C9.41334 2.26274 9.44607 2.26795 9.4788 2.27315C9.55355 2.28517 9.62831 2.2988 9.70266 2.31362C9.84125 2.34087 9.97864 2.37252 10.1152 2.40858C10.3896 2.4807 10.6591 2.57005 10.9221 2.67622C10.9286 2.67903 10.9355 2.68143 10.9424 2.68424C10.9638 2.69345 10.9852 2.70267 11.0066 2.71188C11.0741 2.74153 11.1408 2.77238 11.207 2.80403C11.3311 2.86373 11.4531 2.92704 11.5731 2.99395C11.816 3.12937 12.0503 3.27962 12.2746 3.44389C12.2984 3.46152 12.3223 3.47915 12.3457 3.49678C12.3497 3.49999 12.3538 3.50319 12.3578 3.506C12.4116 3.54807 12.4641 3.59094 12.5166 3.63461C12.6245 3.72476 12.7296 3.81811 12.8318 3.91467C13.0294 4.10138 13.2157 4.29971 13.3894 4.50886C13.4125 4.5369 13.4355 4.56495 13.4581 4.593C13.4622 4.59821 13.4731 4.61183 13.4832 4.62465C13.4945 4.63907 13.5078 4.6567 13.5135 4.66392C13.5353 4.69276 13.5567 4.72201 13.5781 4.75126C13.661 4.86505 13.7402 4.98124 13.8157 5.09984C13.9624 5.33062 14.0953 5.57022 14.2125 5.81662C14.242 5.87873 14.2707 5.94083 14.2982 6.00373C14.299 6.00534 14.2998 6.00694 14.3002 6.00894C14.3144 6.0442 14.3289 6.07866 14.343 6.11392C14.3939 6.24253 14.4408 6.37275 14.4832 6.50416C14.5697 6.7698 14.6388 7.04105 14.6909 7.31551C14.7043 7.38482 14.716 7.45454 14.7273 7.52425C14.7326 7.55711 14.7366 7.58996 14.7419 7.62242C14.7144 7.45614 14.7398 7.60839 14.7443 7.64565C14.7613 7.78789 14.7734 7.93093 14.7811 8.07396C14.7968 8.36805 14.7936 8.66334 14.771 8.95703C14.7657 9.02354 14.7596 9.09005 14.7524 9.15656C14.7487 9.18981 14.7451 9.22267 14.7411 9.25592C14.7402 9.26353 14.739 9.27115 14.7382 9.27916C14.7164 9.41859 14.693 9.55762 14.6639 9.69585C14.6053 9.97311 14.5285 10.2464 14.4352 10.5136C14.4137 10.5745 14.3915 10.635 14.3685 10.6951C14.3568 10.7252 14.3451 10.7552 14.3333 10.7849C14.3273 10.7997 14.2978 10.8702 14.2945 10.8786C14.2917 10.8854 14.2889 10.8914 14.2877 10.8942C14.2727 10.9279 14.2578 10.9611 14.2424 10.9944C14.2137 11.0565 14.1838 11.1182 14.1531 11.1795C14.0287 11.4275 13.8889 11.6679 13.7345 11.8987C13.6589 12.0117 13.5797 12.1227 13.4977 12.2308C13.4949 12.2349 13.4917 12.2389 13.4884 12.2429C13.4698 12.2661 13.4516 12.2889 13.4331 12.3122C13.3902 12.3647 13.3466 12.4168 13.3021 12.4684C13.1215 12.6772 12.9276 12.8751 12.7227 13.0602C12.6217 13.1516 12.5182 13.2397 12.412 13.3247C12.3901 13.3423 12.3679 13.3595 12.3457 13.3771C12.3404 13.3812 12.3352 13.3852 12.3304 13.3888C12.2722 13.4324 12.2132 13.4749 12.1534 13.5166C11.9291 13.6732 11.6951 13.8163 11.4531 13.9449L11.4527 13.9445Z" fill="#AFB9CA"/>
<path d="M14.7023 12.2397C15.3508 11.2064 15.7173 10.0124 15.7824 8.79876C15.8482 7.56793 15.5811 6.33388 15.0352 5.22885C14.5083 4.16188 13.703 3.24957 12.7356 2.55402C11.7452 1.84164 10.5807 1.41614 9.37131 1.26268C9.0832 1.22622 8.79268 1.20859 8.50216 1.20819C6.7804 1.2118 5.12046 1.82241 3.80075 2.91462C2.54166 3.95674 1.65149 5.45242 1.34762 7.05107C1.19044 7.87964 1.21225 8.70942 1.21225 9.5468V12.8695C1.21225 13.6236 1.20458 14.378 1.21225 15.1317C1.21225 15.1437 1.21225 15.1557 1.21225 15.1677C1.21225 15.4362 1.44177 15.6641 1.71291 15.6641H7.49924C7.8823 15.6641 8.26577 15.6705 8.64883 15.6625C9.87883 15.6365 11.0975 15.3019 12.1614 14.6885C13.193 14.0939 14.0715 13.2433 14.7019 12.2393L14.7023 12.2397ZM11.4527 13.9445C11.3311 14.009 11.2078 14.0699 11.0826 14.1272C11.049 14.1424 11.0155 14.1576 10.9815 14.1721C10.9767 14.1741 10.9666 14.1785 10.9553 14.1833C10.9371 14.1905 10.9072 14.2029 10.8967 14.2073C10.8579 14.2225 10.8191 14.2378 10.7803 14.2522C10.5189 14.3508 10.251 14.4333 9.97904 14.4986C9.8368 14.5331 9.69336 14.5627 9.54951 14.5876C9.48405 14.5988 9.41818 14.6088 9.35232 14.6188C9.31151 14.624 9.2703 14.6288 9.22949 14.6328C8.76157 14.6821 8.29042 14.6709 7.82088 14.6709H2.21476V9.96469C2.21476 9.28477 2.18244 8.59362 2.23456 7.9149C2.24184 7.81994 2.25113 7.72499 2.26244 7.63043C2.26406 7.61841 2.26528 7.60599 2.26689 7.59397C2.26689 7.59397 2.26689 7.59397 2.26689 7.59357C2.27538 7.53747 2.28386 7.48178 2.29356 7.42569C2.32709 7.23217 2.36872 7.03985 2.41923 6.84994C2.46893 6.66202 2.52711 6.47652 2.59338 6.29382C2.62449 6.20727 2.65763 6.12153 2.69279 6.03659C2.69036 6.0422 2.68793 6.04741 2.6847 6.05382C2.69237 6.03739 2.69924 6.02016 2.70652 6.00333C2.72874 5.95285 2.75138 5.90317 2.77441 5.85349C2.93644 5.50731 3.12838 5.17516 3.34738 4.86144C3.3987 4.78772 3.45163 4.7148 3.50618 4.64348C3.50254 4.64789 3.50012 4.65069 3.49568 4.6559C3.51022 4.63867 3.52396 4.62024 3.53811 4.60261C3.56922 4.56375 3.60074 4.52529 3.63266 4.48682C3.75752 4.33777 3.88925 4.19394 4.02663 4.05571C4.16079 3.92108 4.301 3.79167 4.44606 3.66867C4.51273 3.61217 4.58062 3.55768 4.64931 3.50359C4.64325 3.5076 4.6388 3.51121 4.63153 3.51641C4.64163 3.5092 4.65133 3.50159 4.66103 3.49438C4.66345 3.49237 4.66547 3.49077 4.66789 3.48877C4.67436 3.48356 4.68244 3.47795 4.68891 3.47354C4.69174 3.47154 4.69416 3.46954 4.69699 3.46753C4.74063 3.43508 4.78508 3.40303 4.82952 3.37177C5.14308 3.15101 5.47564 2.95669 5.82234 2.79201C5.90194 2.75395 5.98275 2.71829 6.06397 2.68303C6.07852 2.67702 6.09347 2.67101 6.10802 2.6654C6.15974 2.64497 6.21145 2.62494 6.26358 2.60571C6.44703 2.53799 6.63291 2.47829 6.82161 2.42661C7.01233 2.37452 7.20508 2.33045 7.39944 2.29479C7.49278 2.27756 7.58773 2.26755 7.68107 2.24952C7.51379 2.28157 7.67542 2.25072 7.71865 2.24551C7.77603 2.2391 7.83341 2.23309 7.89079 2.22828C8.09404 2.21025 8.2981 2.20184 8.50216 2.20144C8.79107 2.20224 9.07876 2.22147 9.36566 2.25593C9.3705 2.25673 9.37536 2.25713 9.38021 2.25793C9.41334 2.26274 9.44607 2.26795 9.4788 2.27315C9.55355 2.28517 9.62831 2.2988 9.70266 2.31362C9.84125 2.34087 9.97864 2.37252 10.1152 2.40858C10.3896 2.4807 10.6591 2.57005 10.9221 2.67622C10.9286 2.67903 10.9355 2.68143 10.9424 2.68424C10.9638 2.69345 10.9852 2.70267 11.0066 2.71188C11.0741 2.74153 11.1408 2.77238 11.207 2.80403C11.3311 2.86373 11.4531 2.92704 11.5731 2.99395C11.816 3.12937 12.0503 3.27962 12.2746 3.44389C12.2984 3.46152 12.3223 3.47915 12.3457 3.49678C12.3497 3.49999 12.3538 3.50319 12.3578 3.506C12.4116 3.54807 12.4641 3.59094 12.5166 3.63461C12.6245 3.72476 12.7296 3.81811 12.8318 3.91467C13.0294 4.10138 13.2157 4.29971 13.3894 4.50886C13.4125 4.5369 13.4355 4.56495 13.4581 4.593C13.4622 4.59821 13.4731 4.61183 13.4832 4.62465C13.4945 4.63907 13.5078 4.6567 13.5135 4.66392C13.5353 4.69276 13.5567 4.72201 13.5781 4.75126C13.661 4.86505 13.7402 4.98124 13.8157 5.09984C13.9624 5.33062 14.0953 5.57022 14.2125 5.81662C14.242 5.87873 14.2707 5.94083 14.2982 6.00373C14.299 6.00534 14.2998 6.00694 14.3002 6.00894C14.3144 6.0442 14.3289 6.07866 14.343 6.11392C14.3939 6.24253 14.4408 6.37275 14.4832 6.50416C14.5697 6.7698 14.6388 7.04105 14.6909 7.31551C14.7043 7.38482 14.716 7.45454 14.7273 7.52425C14.7326 7.55711 14.7366 7.58996 14.7419 7.62242C14.7144 7.45614 14.7398 7.60839 14.7443 7.64565C14.7613 7.78789 14.7734 7.93093 14.7811 8.07396C14.7968 8.36805 14.7936 8.66334 14.771 8.95703C14.7657 9.02354 14.7596 9.09005 14.7524 9.15656C14.7487 9.18981 14.7451 9.22267 14.7411 9.25592C14.7402 9.26353 14.739 9.27115 14.7382 9.27916C14.7164 9.41859 14.693 9.55762 14.6639 9.69585C14.6053 9.97311 14.5285 10.2464 14.4352 10.5136C14.4137 10.5745 14.3915 10.635 14.3685 10.6951C14.3568 10.7252 14.3451 10.7552 14.3333 10.7849C14.3273 10.7997 14.2978 10.8702 14.2945 10.8786C14.2917 10.8854 14.2889 10.8914 14.2877 10.8942C14.2727 10.9279 14.2578 10.9611 14.2424 10.9944C14.2137 11.0565 14.1838 11.1182 14.1531 11.1795C14.0287 11.4275 13.8889 11.6679 13.7345 11.8987C13.6589 12.0117 13.5797 12.1227 13.4977 12.2308C13.4949 12.2349 13.4917 12.2389 13.4884 12.2429C13.4698 12.2661 13.4516 12.2889 13.4331 12.3122C13.3902 12.3647 13.3466 12.4168 13.3021 12.4684C13.1215 12.6772 12.9276 12.8751 12.7227 13.0602C12.6217 13.1516 12.5182 13.2397 12.412 13.3247C12.3901 13.3423 12.3679 13.3595 12.3457 13.3771C12.3404 13.3812 12.3352 13.3852 12.3304 13.3888C12.2722 13.4324 12.2132 13.4749 12.1534 13.5166C11.9291 13.6732 11.6951 13.8163 11.4531 13.9449L11.4527 13.9445Z" stroke="#AFB9CA" stroke-width="0.74701" stroke-linejoin="round" mask="url(#path-1-outside-1_911_3)"/>
<path d="M7.69897 8.62354C7.59353 8.18053 7.87023 7.73666 8.317 7.6321C8.76377 7.52754 9.21143 7.8019 9.31688 8.2449C9.42233 8.6879 9.14563 9.13179 8.69886 9.23635C8.25209 9.3409 7.80442 9.06654 7.69897 8.62354Z" fill="#AFB9CA"/>
<path d="M11.4227 9.1973C10.9986 9.02312 10.7972 8.54101 10.9729 8.12048C11.1486 7.69995 11.6348 7.50026 12.0589 7.67445C12.483 7.84863 12.6844 8.33074 12.5087 8.75127C12.333 9.17179 11.8468 9.37149 11.4227 9.1973Z" fill="#AFB9CA"/>
<path d="M5.25341 9.26027C4.79436 9.26027 4.42224 8.89128 4.42224 8.4361C4.42224 7.98093 4.79436 7.61194 5.25341 7.61194C5.71246 7.61194 6.08459 7.98093 6.08459 8.4361C6.08459 8.89128 5.71246 9.26027 5.25341 9.26027Z" fill="#AFB9CA"/>
</svg>
