<svg width="17" height="15" viewBox="0 0 17 15" fill="none" xmlns="http://www.w3.org/2000/svg">
<path d="M13.2407 9.54954L13.086 9.4095C14.4964 7.85144 15.1819 6.366 15.1819 4.99213C15.1819 3.2563 13.7151 1.82894 11.894 1.82894C10.7349 1.82894 9.6865 2.39861 9.08457 3.34809L13.2407 9.54954ZM13.2407 9.54954L13.086 9.4095C11.9476 10.6672 10.3689 11.9239 8.50027 13.0562C6.63166 11.9239 5.05317 10.6672 3.91451 9.40948C2.50392 7.85145 1.81864 6.36602 1.81864 4.99213C1.81864 3.2563 3.28544 1.82894 5.10655 1.82894C6.26571 1.82894 7.31394 2.39868 7.91612 3.34836L7.91614 3.34839M13.2407 9.54954L7.91614 3.34839M7.91614 3.34839C8.04283 3.54813 8.26499 3.66633 8.50026 3.66633M7.91614 3.34839L8.50026 3.66633M8.50028 1.89943C9.37253 1.00071 10.5872 0.485835 11.8934 0.485697L8.50028 1.89943ZM8.50028 1.89943C7.62793 1.00037 6.41319 0.485697 5.10655 0.485697C2.54389 0.485697 0.444041 2.49875 0.444041 4.99213C0.444041 7.2444 1.82703 9.27398 3.45221 10.8871C5.08348 12.5064 6.99861 13.7457 8.14629 14.4185L8.50028 1.89943ZM8.50026 3.66633C8.73521 3.66633 8.95782 3.54839 9.08442 3.34833L8.50026 3.66633ZM8.14637 14.4186C8.25576 14.4828 8.37819 14.5143 8.5 14.5143C8.62177 14.5143 8.74416 14.4828 8.85351 14.4186C10.0013 13.7459 11.9166 12.5066 13.5479 10.8873C15.173 9.27416 16.556 7.24452 16.556 4.99213C16.556 2.49919 14.4567 0.485971 11.894 0.485697L8.14637 14.4186Z" fill="#ffffff" stroke="#AFB9CA" stroke-width="0.486919"/>
</svg>
